static_grf.mot
version=1
nRows=20
nColumns 19
inDegrees=yes
endheader
time	1_ground_force_vx	1_ground_force_vy	1_ground_force_vz	1_ground_force_px	1_ground_force_py	1_ground_force_pz	1_ground_torque_x	1_ground_torque_y	1_ground_torque_z	2_ground_force_vx	2_ground_force_vy	2_ground_force_vz	2_ground_force_px	2_ground_force_py	2_ground_force_pz	2_ground_torque_x	2_ground_torque_y	2_ground_torque_z
            0.503500	           -1.986336	          286.896332	          -20.684678	           -0.239733	            0.006171	           -0.393418	           -0.009340	            1.349080	           -0.097266	            0.056624	          259.572169	           23.498452	           -0.248349	            0.005586	           -0.697442	           -0.000201	           -0.922490	           -0.083511
            0.504000	           -2.123440	          285.814318	          -20.597263	           -0.239532	            0.006172	           -0.393733	           -0.009565	            1.287430	           -0.092779	           -0.039028	          260.123979	           23.594320	           -0.248856	            0.005585	           -0.697656	            0.000123	           -0.818590	           -0.074249
            0.504500	           -2.261637	          286.356041	          -20.823882	           -0.239207	            0.006173	           -0.393836	           -0.010262	            1.299342	           -0.094488	            0.339156	          259.204066	           23.731659	           -0.248373	            0.005585	           -0.697252	           -0.001189	           -0.908632	           -0.083191
            0.505000	           -1.986091	          286.175072	          -20.641914	           -0.239540	            0.006173	           -0.393893	           -0.009710	            1.399117	           -0.100919	            0.197962	          259.387532	           23.779304	           -0.248063	            0.005587	           -0.697347	           -0.000710	           -0.930284	           -0.085284
            0.505500	           -2.445075	          286.716537	          -20.821881	           -0.239228	            0.006171	           -0.393468	           -0.011033	            1.293719	           -0.093952	            0.060050	          258.650629	           23.729808	           -0.248558	            0.005584	           -0.697174	           -0.000207	           -0.893481	           -0.081972
            0.506000	           -2.123913	          286.535970	          -20.731738	           -0.239440	            0.006172	           -0.393798	           -0.009807	            1.323111	           -0.095731	            0.197880	          259.388201	           23.591592	           -0.248283	            0.005586	           -0.697275	           -0.000711	           -0.932382	           -0.084801
            0.506500	           -2.353778	          286.356810	          -21.007078	           -0.239361	            0.006173	           -0.393863	           -0.010308	            1.254069	           -0.091998	            0.195262	          260.124490	           23.688076	           -0.248319	            0.005588	           -0.698021	           -0.000680	           -0.905508	           -0.082460
            0.507000	           -2.214931	          285.994142	          -20.504550	           -0.239538	            0.006173	           -0.393896	           -0.010152	            1.310899	           -0.093986	            0.197215	          259.572342	           23.592249	           -0.247990	            0.005586	           -0.697082	           -0.000689	           -0.907059	           -0.082442
            0.507500	           -2.535946	          285.994277	          -20.549610	           -0.239337	            0.006172	           -0.393710	           -0.011114	            1.253444	           -0.090064	            0.151838	          259.202720	           23.919451	           -0.248510	            0.005586	           -0.697612	           -0.000543	           -0.926651	           -0.085512
            0.508000	           -2.077093	          286.173875	          -20.366551	           -0.239371	            0.006173	           -0.393919	           -0.009889	            1.362487	           -0.096966	            0.055295	          259.940512	           23.499767	           -0.248477	            0.005587	           -0.697707	           -0.000193	           -0.906220	           -0.081926
            0.508500	           -2.169414	          286.535372	          -20.594057	           -0.239057	            0.006172	           -0.393648	           -0.009972	            1.317106	           -0.094664	            0.015174	          258.098144	           23.680928	           -0.248229	            0.005584	           -0.696591	           -0.000052	           -0.888842	           -0.081553
            0.509000	           -2.031999	          286.535595	          -20.640254	           -0.239280	            0.006172	           -0.393720	           -0.009839	            1.387399	           -0.099940	            0.383285	          259.941361	           23.593483	           -0.248755	            0.005586	           -0.697784	           -0.001385	           -0.939605	           -0.085283
            0.509500	           -2.123685	          286.535577	          -20.640027	           -0.239107	            0.006171	           -0.393458	           -0.009959	            1.343714	           -0.096792	            0.196592	          259.756148	           23.686762	           -0.248547	            0.005585	           -0.697396	           -0.000711	           -0.939759	           -0.085695
            0.510000	           -2.169513	          287.076138	          -20.591738	           -0.239566	            0.006169	           -0.393059	           -0.010047	            1.329469	           -0.095362	            0.106215	          258.835106	           23.683517	           -0.248677	            0.005585	           -0.697418	           -0.000385	           -0.939372	           -0.085953
            0.510500	           -2.215419	          286.175225	          -20.687201	           -0.239327	            0.006172	           -0.393772	           -0.010338	            1.335422	           -0.096536	           -0.081246	          258.834932	           23.542812	           -0.248481	            0.005586	           -0.697560	            0.000276	           -0.878635	           -0.079918
            0.511000	           -2.261538	          285.815274	          -20.826201	           -0.239333	            0.006173	           -0.393903	           -0.010741	            1.357462	           -0.098913	            0.339779	          259.020260	           23.637146	           -0.248461	            0.005584	           -0.697010	           -0.001181	           -0.899979	           -0.082128
            0.511500	           -2.214916	          286.534773	          -20.456375	           -0.239714	            0.006170	           -0.393300	           -0.010385	            1.343474	           -0.095914	            0.059447	          258.834268	           23.871249	           -0.248320	            0.005583	           -0.696619	           -0.000209	           -0.909778	           -0.083905
            0.512000	           -2.169999	          285.995724	          -20.871511	           -0.239380	            0.006173	           -0.393886	           -0.010336	            1.362287	           -0.099418	            0.341191	          258.651309	           23.823544	           -0.248819	            0.005583	           -0.697107	           -0.001289	           -0.977239	           -0.090010
            0.512500	           -2.260759	          286.534764	          -20.456262	           -0.239464	            0.006170	           -0.393170	           -0.010436	            1.322741	           -0.094433	            0.153729	          258.651135	           23.682840	           -0.248475	            0.005583	           -0.696668	           -0.000549	           -0.923075	           -0.084519
            0.513000	           -2.123895	          285.815104	          -20.780686	           -0.239323	            0.006173	           -0.393827	           -0.009815	            1.320750	           -0.096027	            0.481596	          258.652988	           23.494988	           -0.248470	            0.005584	           -0.696818	           -0.001761	           -0.945725	           -0.085906
